<svg width="475" height="475" viewBox="0 0 475 475" fill="none" xmlns="http://www.w3.org/2000/svg">
<path d="M68.3658 88.6275C70.2251 73.2767 78.1064 59.2932 90.2758 49.7533C102.445 40.2134 117.906 35.8985 133.257 37.7579L159.566 40.9445C174.85 42.7869 190.243 38.5097 202.385 29.046L223.032 12.8602C229.066 8.10249 235.981 4.58452 243.379 2.50853C250.778 0.432533 258.513 -0.160521 266.142 0.76345C273.77 1.68742 281.14 4.11019 287.829 7.89246C294.518 11.6747 300.393 16.7419 305.117 22.8026L321.303 43.4497C330.836 55.5494 344.783 63.3787 360.042 65.227L386.352 68.4137C401.703 70.273 415.686 78.1543 425.226 90.3237C434.766 102.493 439.081 117.954 437.221 133.305L434.035 159.614C432.186 174.873 436.459 190.287 445.933 202.433L462.119 223.08C466.877 229.114 470.395 236.029 472.471 243.427C474.547 250.826 475.14 258.561 474.216 266.19C473.292 273.818 470.869 281.188 467.087 287.877C463.304 294.566 458.237 300.441 452.177 305.165L431.53 321.351C419.441 330.882 411.612 344.808 409.752 360.09L406.566 386.4C404.706 401.75 396.825 415.734 384.656 425.274C372.486 434.814 357.025 439.129 341.675 437.269L315.365 434.083C300.081 432.24 284.689 436.518 272.547 445.981L251.899 462.167C245.865 466.925 238.95 470.443 231.552 472.519C224.154 474.595 216.418 475.188 208.79 474.264C201.161 473.34 193.791 470.917 187.102 467.135C180.413 463.352 174.538 458.285 169.815 452.225L153.629 431.577C144.097 419.489 130.171 411.66 114.889 409.8L88.5796 406.614C73.2288 404.754 59.2453 396.873 49.7054 384.703C40.1655 372.534 35.8506 357.073 37.71 341.722L40.8966 315.413C42.739 300.129 38.4618 284.737 28.9981 272.594L12.8123 251.947C8.0546 245.913 4.53663 238.998 2.46063 231.6C0.384641 224.202 -0.208416 216.466 0.715554 208.838C1.63953 201.209 4.0623 193.839 7.84457 187.15C11.6268 180.461 16.694 174.586 22.7547 169.862L43.4018 153.677C55.4908 144.145 63.3192 130.219 65.1791 114.937L68.3658 88.6275Z" fill="#F6F6F6"/>
</svg>
