<svg width="701" height="943" viewBox="0 0 701 943" fill="none" xmlns="http://www.w3.org/2000/svg">
<path d="M179.447 261.566C161.857 -84.4275 545.184 33.4803 764.809 282.842C840.409 368.679 896.612 470.091 910.389 573.52C921.329 655.654 899.754 720.908 857.224 770.651C684.366 972.829 165.354 918.799 76.4222 700.672C6.34954 528.802 66.255 346.537 179.447 261.566Z" fill="white" fill-opacity="0.4"/>
<path d="M965.795 97.5259C728.438 343.952 239.686 730.546 183.541 305.507C113.36 -225.791 854.983 157.557 910.389 573.52C965.795 989.483 187.235 972.466 76.4222 700.672C-34.3903 428.878 179.847 131.087 415.837 233.187C651.826 335.287 648.543 853.822 939.939 760.231" stroke="white" stroke-width="91"/>
</svg>
