<svg width="26" height="21" viewBox="0 0 26 21" fill="none" xmlns="http://www.w3.org/2000/svg">
<path d="M1 4.01158C1 3.30558 1.28046 2.6285 1.77967 2.12928C2.27889 1.63007 2.95597 1.34961 3.66197 1.34961H22.2958C23.0018 1.34961 23.6789 1.63007 24.1781 2.12928C24.6773 2.6285 24.9577 3.30558 24.9577 4.01158V17.3214C24.9577 18.0274 24.6773 18.7045 24.1781 19.2037C23.6789 19.703 23.0018 19.9834 22.2958 19.9834H3.66197C2.95597 19.9834 2.27889 19.703 1.77967 19.2037C1.28046 18.7045 1 18.0274 1 17.3214V4.01158Z" stroke="#4DC4FF" stroke-width="1.99648" stroke-linecap="round" stroke-linejoin="round"/>
<path d="M1 4.01172L12.9789 11.9976L24.9577 4.01172" stroke="#4DC4FF" stroke-width="1.99648" stroke-linecap="round" stroke-linejoin="round"/>
</svg>
