<svg width="24" height="28" viewBox="0 0 24 28" fill="none" xmlns="http://www.w3.org/2000/svg">
<path d="M8.31738 12.3919C8.31738 13.4509 8.73807 14.4665 9.48689 15.2153C10.2357 15.9642 11.2513 16.3848 12.3103 16.3848C13.3693 16.3848 14.385 15.9642 15.1338 15.2153C15.8826 14.4665 16.3033 13.4509 16.3033 12.3919C16.3033 11.3329 15.8826 10.3173 15.1338 9.56844C14.385 8.81961 13.3693 8.39893 12.3103 8.39893C11.2513 8.39893 10.2357 8.81961 9.48689 9.56844C8.73807 10.3173 8.31738 11.3329 8.31738 12.3919Z" stroke="#4DC4FF" stroke-width="1.99648" stroke-linecap="round" stroke-linejoin="round"/>
<path d="M19.8394 19.921L14.192 25.5684C13.6929 26.067 13.0162 26.3471 12.3107 26.3471C11.6051 26.3471 10.9285 26.067 10.4293 25.5684L4.78061 19.921C3.29154 18.4319 2.27748 16.5346 1.86667 14.4691C1.45586 12.4037 1.66676 10.2627 2.47269 8.31713C3.27862 6.37152 4.64339 4.70858 6.39441 3.53859C8.14543 2.36861 10.2041 1.74414 12.31 1.74414C14.4159 1.74414 16.4746 2.36861 18.2256 3.53859C19.9766 4.70858 21.3414 6.37152 22.1473 8.31713C22.9532 10.2627 23.1641 12.4037 22.7533 14.4691C22.3425 16.5346 21.3285 18.4319 19.8394 19.921Z" stroke="#4DC4FF" stroke-width="1.99648" stroke-linecap="round" stroke-linejoin="round"/>
</svg>
